<svg xmlns="http://www.w3.org/2000/svg" width="14.027" height="18" viewBox="0 0 14.027 18"><defs><style>.a{fill:#ccc;}</style></defs><g transform="translate(-56.5 0)"><path class="a" d="M-1012.244-1565a.7.7,0,0,1-.7-.7.7.7,0,0,1,.7-.7h3.517a.7.7,0,0,1,.7.7.7.7,0,0,1-.7.7Zm-4.552-2.109a.7.7,0,0,1-.6-.329.7.7,0,0,1-.039-.679l1.294-2.693v-6.542a5.655,5.655,0,0,1,5.65-5.648,5.655,5.655,0,0,1,5.65,5.648v6.542l1.294,2.693a.7.7,0,0,1-.039.679.7.7,0,0,1-.6.329Zm2.067-10.243v6.7a.7.7,0,0,1-.069.3l-.88,1.83h10.384l-.879-1.83a.7.7,0,0,1-.069-.3v-6.7a4.247,4.247,0,0,0-4.243-4.241A4.247,4.247,0,0,0-1014.729-1577.352Z" transform="translate(1074 1583)"/></g></svg>