<svg xmlns="http://www.w3.org/2000/svg" width="16" height="16" viewBox="0 0 16 16"><defs><style>.a{fill:#e5e5e5;}</style></defs><g transform="translate(-56 66)"><path class="a" d="M-1085.167-1577a1.168,1.168,0,0,1-1.167-1.167v-3a1.168,1.168,0,0,1,1.167-1.167h5a1.168,1.168,0,0,1,1.167,1.167v3a1.168,1.168,0,0,1-1.167,1.167Zm-.167-4.167v3a.167.167,0,0,0,.167.167h5a.167.167,0,0,0,.167-.167v-3a.167.167,0,0,0-.167-.167h-5A.167.167,0,0,0-1085.334-1581.167Zm-8.5,4.167a1.168,1.168,0,0,1-1.167-1.167v-7a1.168,1.168,0,0,1,1.167-1.167h5a1.168,1.168,0,0,1,1.167,1.167v7a1.168,1.168,0,0,1-1.167,1.167Zm-.167-8.167v7a.167.167,0,0,0,.167.167h5a.167.167,0,0,0,.167-.167v-7a.167.167,0,0,0-.167-.167h-5A.167.167,0,0,0-1094-1585.167Zm8.833,1.5a1.168,1.168,0,0,1-1.167-1.167v-7a1.168,1.168,0,0,1,1.167-1.167h5a1.168,1.168,0,0,1,1.167,1.167v7a1.168,1.168,0,0,1-1.167,1.167Zm-.167-8.167v7a.167.167,0,0,0,.167.167h5a.167.167,0,0,0,.167-.167v-7a.167.167,0,0,0-.167-.167h-5A.167.167,0,0,0-1085.334-1591.833Zm-8.5,4.167a1.168,1.168,0,0,1-1.167-1.167v-3a1.168,1.168,0,0,1,1.167-1.167h5a1.168,1.168,0,0,1,1.167,1.167v3a1.168,1.168,0,0,1-1.167,1.167Zm-.167-4.167v3a.167.167,0,0,0,.167.167h5a.167.167,0,0,0,.167-.167v-3a.167.167,0,0,0-.167-.167h-5A.167.167,0,0,0-1094-1591.833Z" transform="translate(1151 1527)"/></g></svg>