<svg xmlns="http://www.w3.org/2000/svg" width="16" height="16" viewBox="0 0 16 16"><defs><style>.a{fill:#ccc;}</style></defs><path class="a" d="M16,16h-1.33c0-2.069.079-2.367-1.174-2.657-1.918-.443-3.729-.861-4.389-2.305A2.779,2.779,0,0,1,9.31,8.495c1.361-2.571,1.7-4.777.935-6.051a2.822,2.822,0,0,0-4.511.023c-.769,1.291-.423,3.485.949,6.017a2.762,2.762,0,0,1,.225,2.543c-.655,1.452-2.45,1.866-4.35,2.3-1.309.3-1.226.58-1.226,2.669H0l0-.827c0-1.68.133-2.65,2.119-3.109,2.243-.518,4.459-.982,3.393-2.945C2.357,3.3,4.612,0,8,0c3.322,0,5.634,3.177,2.488,9.119-1.034,1.952,1.1,2.416,3.393,2.945C15.867,12.523,16,13.493,16,15.173L16,16ZM7.011,12l.607,1.333h.776L9.007,12Zm2,4-.469-2H7.462l-.469,2H9.008Z"/></svg>