<svg xmlns="http://www.w3.org/2000/svg" width="16.829" height="24" viewBox="0 0 16.829 24"><defs><style>.a{fill:#317b22;fill-rule:evenodd;}</style></defs><path class="a" d="M2.59,1.322,5.434,0,9.475,7.889,6.751,9.231c-.538,1.259,2.159,6.289,3.3,6.372.09-.058,2.671-1.328,2.671-1.328l4.11,7.932s-2.764,1.354-2.854,1.4a4.351,4.351,0,0,1-1.862.4C6.435,23.957-.03,13.436,0,6.546.011,4.195.777,2.267,2.59,1.322ZM4.52,2.6,3.5,3.1C-1.8,5.862,7.674,24.285,13.145,21.786l.972-.474-2.271-4.383-1.026.5C7.657,18.977,2.558,9.211,5.765,7.492l1.007-.5L4.52,2.6Z" transform="translate(0)"/></svg>