<svg xmlns="http://www.w3.org/2000/svg" width="12.622" height="18" viewBox="0 0 12.622 18"><defs><style>.a{fill:#119da4;fill-rule:evenodd;}</style></defs><path class="a" d="M1.942.991,4.075,0,7.106,5.917,5.063,6.923c-.4.944,1.619,4.717,2.473,4.779.067-.043,2-1,2-1l3.082,5.949s-2.073,1.015-2.14,1.047a3.263,3.263,0,0,1-1.4.3C4.826,17.968-.023,10.077,0,4.909.008,3.146.583,1.7,1.942.991Zm1.447.955-.767.378C-1.348,4.4,5.755,18.214,9.859,16.339l.729-.355L8.884,12.7l-.769.376c-2.372,1.16-6.2-6.164-3.791-7.453l.755-.373L3.39,1.947Z" transform="translate(0)"/></svg>