<svg xmlns="http://www.w3.org/2000/svg" width="12" height="18" viewBox="0 0 12 18"><defs><style>.a{fill:#119da4;}</style></defs><path class="a" d="M10,1.5a4.473,4.473,0,0,1,4.5,4.2c0,1.679-.794,2.616-1.994,4.036A18.89,18.89,0,0,0,10,13.26,18.865,18.865,0,0,0,7.494,9.737C6.294,8.318,5.5,7.38,5.5,5.7A4.473,4.473,0,0,1,10,1.5ZM10,0A5.964,5.964,0,0,0,4,5.7c0,4.682,4.783,5.177,6,12.3,1.217-7.121,6-7.616,6-12.3A5.963,5.963,0,0,0,10,0Zm0,8.25A2.25,2.25,0,1,1,12.25,6,2.25,2.25,0,0,1,10,8.25Z" transform="translate(-4)"/></svg>