<svg xmlns="http://www.w3.org/2000/svg" width="18" height="18" viewBox="0 0 18 18"><defs><style>.a{fill:#ccc;}</style></defs><path class="a" d="M9,0a9,9,0,1,0,9,9A9,9,0,0,0,9,0Zm7.5,9a7.487,7.487,0,0,1-.152,1.5h-2.89a16.03,16.03,0,0,0,0-3h2.89A7.487,7.487,0,0,1,16.5,9Zm-.631-3H13.244a12.614,12.614,0,0,0-1.461-3.958A7.536,7.536,0,0,1,15.869,6ZM11.7,6H9.75V1.757A9.914,9.914,0,0,1,11.7,6ZM8.25,1.757V6H6.3A9.914,9.914,0,0,1,8.25,1.757Zm0,5.743v3h-2.2a13.74,13.74,0,0,1,0-3Zm0,4.5v4.243A9.914,9.914,0,0,1,6.3,12Zm1.5,4.243V12H11.7A9.914,9.914,0,0,1,9.75,16.243Zm0-5.743v-3h2.2a13.74,13.74,0,0,1,0,3ZM6.217,2.042A12.614,12.614,0,0,0,4.756,6H2.131A7.536,7.536,0,0,1,6.217,2.042ZM1.651,7.5h2.89a16.03,16.03,0,0,0,0,3H1.651a7.5,7.5,0,0,1,0-3ZM2.131,12H4.756a12.614,12.614,0,0,0,1.461,3.958A7.536,7.536,0,0,1,2.131,12Zm9.653,3.958A12.614,12.614,0,0,0,13.244,12h2.625a7.536,7.536,0,0,1-4.086,3.958Z"/></svg>