<svg xmlns="http://www.w3.org/2000/svg" width="107" height="30" viewBox="0 0 107 30">
  <path id="Union_6" data-name="Union 6" d="M-1221-1201v-30h2v30Zm-35-.922v-28.519h2v28.519Zm40-3.119v-21.138h2v21.138Zm-10,0v-21.138h2v21.138Zm-25-2.324v-17.2h2v17.2Zm-10,0v-17.2h2v17.2Zm-30,0v-17.89h2v17.89Zm5-1.556v-14.26h2v14.26Zm-10,0v-14.26h2v14.26Zm85-.149v-13.707h2v13.707Zm-20,0v-13.707h2v13.707Zm-10-2.1v-9.759h2v9.759Zm-25,0v-9.759h2v9.759Zm60-.367v-8.954h2v8.954Zm-30,0v-8.954h2v8.954Zm-40,0v-8.954h2v8.954Zm-5,0v-8.954h2v8.954Zm-20,0v-8.954h2v8.954Zm-5,0v-8.954h2v8.954Zm105-.14v-8.962h2v8.962Zm-45,0v-8.962h2v8.962Zm-25,0v-8.962h2v8.962Z" transform="translate(1306 1231)" fill="#317b22"/>
</svg>
